<svg width="35" height="34" viewBox="0 0 35 34" fill="none" xmlns="http://www.w3.org/2000/svg">
<path fill-rule="evenodd" clip-rule="evenodd" d="M23.2474 25.3847C24.0284 26.1658 25.2947 26.1658 26.0758 25.3847C26.8568 24.6037 26.8568 23.3374 26.0758 22.5563L20.3479 16.8284L25.9336 11.2427C26.7147 10.4616 26.7147 9.19531 25.9336 8.41426C25.1526 7.63321 23.8863 7.63321 23.1052 8.41426L17.5195 14L11.9337 8.41417C11.1526 7.63313 9.88628 7.63313 9.10523 8.41417C8.32419 9.19522 8.32419 10.4616 9.10523 11.2426L14.691 16.8284L8.96307 22.5564C8.18202 23.3374 8.18202 24.6038 8.96307 25.3848C9.74412 26.1659 11.0104 26.1659 11.7915 25.3848L17.5195 19.6568L23.2474 25.3847Z" fill="black"/>
</svg>
