<svg width="20" height="20" viewBox="0 0 20 20" fill="none" xmlns="http://www.w3.org/2000/svg">
<path fill-rule="evenodd" clip-rule="evenodd" d="M10.0009 5.07009C7.2783 5.07009 5.07087 7.27758 5.07087 10.0003C5.07087 12.723 7.2783 14.9295 10.0009 14.9295C12.7236 14.9295 14.9302 12.723 14.9302 10.0003C14.9302 7.27758 12.7236 5.07009 10.0009 5.07009ZM13.201 10.0003C13.201 8.23282 11.7681 6.80016 10.0009 6.80016C8.23351 6.80016 6.80089 8.23282 6.80089 10.0003C6.80089 11.7676 8.23351 13.2004 10.0009 13.2004C11.7681 13.2004 13.201 11.7676 13.201 10.0003Z" fill="#C4C4C4"/>
<path fill-rule="evenodd" clip-rule="evenodd" d="M6.04248 0.457905C5.02047 0.504707 4.32287 0.666513 3.71246 0.903923C3.08105 1.14913 2.54545 1.47715 2.01184 2.01097C1.47784 2.54459 1.14983 3.08021 0.90383 3.71144C0.665827 4.32206 0.503825 5.01989 0.457825 6.04153C0.412024 7.06557 0.400024 7.39299 0.400024 10.0003C0.400024 12.6076 0.411625 12.9338 0.458025 13.9579C0.505026 14.9799 0.666827 15.6775 0.90403 16.2879C1.14943 16.9194 1.47744 17.455 2.01124 17.9886C2.54465 18.5226 3.08025 18.8515 3.71126 19.0967C4.32207 19.3341 5.01987 19.4959 6.04168 19.5427C7.06569 19.5893 7.3927 19.6007 9.99973 19.6007C12.6072 19.6007 12.9334 19.5893 13.9574 19.5427C14.9794 19.4959 15.6778 19.3341 16.2886 19.0967C16.9198 18.8515 17.4546 18.5226 17.988 17.9886C18.522 17.455 18.85 16.9194 19.096 16.2881C19.332 15.6775 19.494 14.9797 19.542 13.9581C19.588 12.934 19.6 12.6076 19.6 10.0003C19.6 7.39299 19.588 7.06577 19.542 6.04173C19.494 5.01969 19.332 4.32206 19.096 3.71164C18.85 3.08021 18.522 2.54459 17.988 2.01097C17.454 1.47695 16.92 1.14893 16.288 0.903923C15.676 0.666513 14.978 0.504707 13.956 0.457905C12.9322 0.411312 12.6061 0.399907 9.99943 0.399902C7.39357 0.399907 7.0663 0.411312 6.04248 0.457905ZM10.0009 2.12997C9.68052 2.12997 9.39532 2.12957 9.13972 2.12997V2.12757C7.3505 2.12957 7.0073 2.14157 6.12169 2.18158C5.18568 2.22458 4.67747 2.38058 4.33907 2.51259C3.89106 2.687 3.57106 2.895 3.23505 3.23102C2.89905 3.56703 2.69065 3.88704 2.51665 4.33506C2.38525 4.67348 2.22884 5.1815 2.18604 6.11754C2.14004 7.12958 2.13084 7.43199 2.13084 9.99569C2.13084 12.5594 2.14004 12.8634 2.18604 13.8755C2.22864 14.8115 2.38525 15.3195 2.51665 15.6575C2.69105 16.1057 2.89905 16.425 3.23505 16.761C3.57106 17.097 3.89106 17.305 4.33907 17.479C4.67767 17.6104 5.18568 17.7668 6.12169 17.81C7.1337 17.856 7.4375 17.866 10.0009 17.866C12.5642 17.866 12.8682 17.856 13.8802 17.81C14.8162 17.7672 15.3246 17.6112 15.6626 17.4792C16.1108 17.3052 16.4298 17.0972 16.7658 16.7612C17.1018 16.4254 17.3102 16.1063 17.4842 15.6583C17.6156 15.3203 17.772 14.8123 17.8148 13.8763C17.8608 12.8642 17.8708 12.5602 17.8708 9.99809C17.8708 7.43599 17.8608 7.13198 17.8148 6.11994C17.7722 5.1839 17.6156 4.67588 17.4842 4.33786C17.3098 3.88984 17.1018 3.56983 16.7658 3.23382C16.43 2.8978 16.1106 2.6898 15.6626 2.51579C15.3242 2.38438 14.8162 2.22798 13.8802 2.18518C12.868 2.13917 12.5642 2.12997 10.0009 2.12997Z" fill="#C4C4C4"/>
<path d="M15.1254 3.72404C14.4894 3.72404 13.9734 4.23946 13.9734 4.87568C13.9734 5.51171 14.4894 6.02773 15.1254 6.02773C15.7614 6.02773 16.2774 5.51171 16.2774 4.87568C16.2774 4.23966 15.7614 3.72404 15.1254 3.72404Z" fill="#C4C4C4"/>
</svg>
