<svg width="20" height="20" viewBox="0 0 20 20" fill="none" xmlns="http://www.w3.org/2000/svg">
<path d="M19.8233 19.5999H15.8014V13.3635C15.8014 11.8763 15.7746 9.96195 13.7096 9.96195C11.6148 9.96195 11.2943 11.5822 11.2943 13.2552V19.5995H7.27242V6.77487H11.1334V8.52749H11.1875C11.5739 7.87334 12.1323 7.3352 12.8031 6.97039C13.4739 6.60558 14.2322 6.42777 14.997 6.45588C19.0734 6.45588 19.8249 9.11073 19.8249 12.5645L19.8233 19.5999ZM2.7344 5.02184C2.27278 5.02192 1.8215 4.88647 1.43764 4.6326C1.05378 4.37874 0.754584 4.01787 0.577856 3.59562C0.401128 3.17338 0.354812 2.70873 0.444787 2.26043C0.534762 1.81213 0.756983 1.40032 1.08333 1.07706C1.40969 0.753812 1.82552 0.533639 2.27824 0.444389C2.73097 0.355139 3.20025 0.400821 3.62676 0.575657C4.05326 0.750493 4.41783 1.04663 4.67436 1.42662C4.93088 1.80661 5.06785 2.25339 5.06794 2.71046C5.06799 3.01394 5.00767 3.31446 4.89043 3.59486C4.77319 3.87526 4.60133 4.13005 4.38464 4.34468C4.16795 4.55931 3.91067 4.72958 3.62752 4.84577C3.34438 4.96196 3.0409 5.02179 2.7344 5.02184ZM4.74534 19.5999H0.719261V6.77487H4.74534V19.5999Z" fill="#C4C4C4"/>
</svg>
