<svg width="20" height="17" viewBox="0 0 20 17" fill="none" xmlns="http://www.w3.org/2000/svg">
<path d="M6.28976 16.2415C13.8373 16.2415 17.9648 9.99359 17.9648 4.5756C17.9648 4.39814 17.9611 4.22148 17.9532 4.04562C18.7544 3.46687 19.4507 2.74464 20 1.92247C19.2648 2.24902 18.4736 2.46884 17.6436 2.56797C18.4908 2.06036 19.1412 1.25739 19.448 0.300166C18.6552 0.7698 17.7772 1.11113 16.8424 1.29542C16.0936 0.498465 15.0276 0 13.8472 0C11.5812 0 9.74363 1.8362 9.74363 4.09957C9.74363 4.42132 9.77963 4.73428 9.85003 5.03447C6.43968 4.863 3.41563 3.23147 1.39176 0.750613C1.03936 1.35654 0.836166 2.06038 0.836166 2.8114C0.836166 4.2339 1.56059 5.48968 2.66218 6.22433C1.98897 6.20355 1.35656 6.01889 0.803818 5.71153C0.803214 5.72873 0.803212 5.7455 0.803212 5.76389C0.803212 7.74956 2.21762 9.40744 4.09518 9.78312C3.75038 9.87704 3.38761 9.92741 3.01318 9.92741C2.74919 9.92741 2.49198 9.90144 2.24198 9.85347C2.76438 11.4826 4.2792 12.6681 6.07515 12.7012C4.67074 13.8011 2.90157 14.4563 0.978781 14.4563C0.647981 14.4563 0.321183 14.4375 0 14.3995C1.81602 15.5626 3.97236 16.2413 6.28998 16.2413" fill="#C4C4C4"/>
</svg>
